<svg width="118" height="122" viewBox="0 0 118 122" fill="none" xmlns="http://www.w3.org/2000/svg">
<path d="M118 56.1154L58.9991 121.307L0 56.1154L27.2593 29.1836H90.7419L118 56.1154Z" fill="#EFDE45"/>
<path d="M118 56.1154L58.9991 121.307L0 56.1154L27.2593 29.1836H90.7419L118 56.1154Z" fill="#EFDE45"/>
<path d="M31.3139 56.1154H0.000976562L27.2603 29.1836L31.3139 56.1154Z" fill="#EFDE45"/>
<path d="M58.9997 121.306L0 56.1152H31.3128L58.9997 121.306Z" fill="#E2C93B"/>
<path d="M58.9994 121.306L31.3125 56.1152H86.6863L58.9994 121.306Z" fill="#EFDE45"/>
<path d="M86.6873 56.1154H31.3135L58.9996 29.1836L86.6873 56.1154Z" fill="#E2C93B"/>
<path d="M117.999 56.1154H86.6865L90.7416 29.1836L117.999 56.1154Z" fill="#EFDE45"/>
<path d="M118 56.1152L59 121.306L86.6869 56.1152H118Z" fill="#E2C93B"/>
<path d="M58.9996 29.1836L31.3134 56.1154L27.2598 29.1836H58.9996Z" fill="#F8DF4F"/>
<path d="M90.7418 29.1836L86.6867 56.1154L58.999 29.1836H90.7418Z" fill="#F8DF4F"/>
<path d="M58.9997 13.9959C58.1813 13.9959 57.5176 13.3323 57.5176 12.5138V1.48213C57.5176 0.663549 58.1813 0 58.9997 0C59.8181 0 60.4818 0.663549 60.4818 1.48213V12.5138C60.4818 13.3323 59.8183 13.9959 58.9997 13.9959Z" fill="#F8DF4F"/>
<path d="M42.563 19.7572C42.0967 19.7572 41.6377 19.5378 41.3492 19.1273L35.0051 10.1022C34.5343 9.43239 34.6957 8.50798 35.3653 8.03726C36.0352 7.56653 36.9596 7.72794 37.4302 8.39742L43.7743 17.4225C44.2452 18.0923 44.0838 19.0167 43.4142 19.4874C43.1548 19.6696 42.8573 19.7572 42.563 19.7572Z" fill="#F8DF4F"/>
<path d="M75.436 19.7554C75.1416 19.7554 74.8442 19.6679 74.585 19.4856C73.9153 19.0149 73.7541 18.0904 74.2248 17.4207L80.5688 8.3956C81.0395 7.72598 81.9637 7.56457 82.6337 8.0353C83.3033 8.50602 83.4645 9.43057 82.9938 10.1002L76.6499 19.1253C76.3613 19.5359 75.9023 19.7554 75.436 19.7554Z" fill="#F8DF4F"/>
</svg>
