<svg width="25" height="24" viewBox="0 0 25 24" fill="none" xmlns="http://www.w3.org/2000/svg">
<g clip-path="url(#clip0_2296_25007)">
<path d="M11.8547 23.7094C18.4018 23.7094 23.7094 18.4018 23.7094 11.8547C23.7094 5.30752 18.4018 0 11.8547 0C5.30752 0 0 5.30752 0 11.8547C0 18.4018 5.30752 23.7094 11.8547 23.7094Z" fill="#4BAE4F"/>
<path d="M5.95562 18.3089C5.81679 18.3089 5.68138 18.2538 5.58101 18.1524C5.44876 18.0186 5.39766 17.8244 5.44745 17.6427L6.22432 14.8054C5.73512 13.8839 5.47774 12.8497 5.478 11.8007C5.47932 8.27166 8.35105 5.40045 11.8793 5.40045C13.5911 5.40098 15.1994 6.06774 16.4075 7.27771C17.6159 8.48741 18.2808 10.0957 18.2803 11.8059C18.279 15.3355 15.4075 18.2069 11.879 18.2069C10.8806 18.2067 9.89243 17.972 9.00596 17.5265L6.08918 18.2915C6.04519 18.3034 6.00014 18.3089 5.95562 18.3089ZM9.06971 16.4382C9.15717 16.4382 9.24411 16.4601 9.32209 16.5025C10.1021 16.928 10.9854 17.1529 11.8772 17.1532C14.8269 17.1532 17.2255 14.7543 17.2268 11.8054C17.2273 10.3765 16.6717 9.03299 15.6622 8.02244C14.6527 7.01164 13.3092 6.45473 11.8793 6.4542C8.93193 6.4542 6.53334 8.8528 6.53202 11.8015C6.53175 12.7406 6.7786 13.6653 7.24567 14.4746C7.31601 14.5965 7.33445 14.7414 7.29757 14.8771L6.7051 17.0407L8.93641 16.4553C8.97988 16.444 9.02493 16.4382 9.06971 16.4382Z" fill="white"/>
<path d="M9.58222 11.9195C9.50714 11.8194 8.96973 11.106 8.96973 10.3676C8.96973 9.62915 9.35724 9.26613 9.49476 9.11597C9.63227 8.96581 9.79481 8.92841 9.89492 8.92841C9.99503 8.92841 10.0951 8.92946 10.1826 8.93367C10.2748 8.93842 10.3983 8.89864 10.5201 9.19132C10.6452 9.49164 10.945 10.2303 10.9827 10.3054C11.0203 10.3805 11.0451 10.4679 10.9953 10.5683C10.9452 10.6684 10.9202 10.7308 10.8454 10.8186C10.7703 10.9063 10.6879 11.0143 10.6202 11.0815C10.5451 11.1563 10.4668 11.2374 10.5543 11.3876C10.6418 11.5378 10.9429 12.0291 11.3889 12.4271C11.9619 12.9385 12.4453 13.0968 12.5954 13.1719C12.7453 13.2469 12.833 13.2346 12.9205 13.1342C13.008 13.0341 13.2956 12.6961 13.3957 12.5459C13.4958 12.3958 13.5957 12.4208 13.7332 12.4709C13.8707 12.5209 14.6083 12.8839 14.7582 12.959C14.9081 13.0341 15.0082 13.0718 15.0459 13.1342C15.0836 13.1969 15.0836 13.4972 14.9585 13.8476C14.8333 14.1979 14.234 14.518 13.9458 14.561C13.6874 14.5997 13.3602 14.6158 13.0008 14.5014C12.783 14.4324 12.5035 14.3399 12.1455 14.1853C10.6402 13.5351 9.65756 12.0196 9.58222 11.9195Z" fill="white"/>
</g>
<defs>
<clipPath id="clip0_2296_25007">
<rect width="24" height="24" fill="white" transform="translate(0.25)"/>
</clipPath>
</defs>
</svg>
